# xmcd
#
# Track frame offsets: 
#        150
#        16491
#        34550
#        50898
#        73265
#        89537
#        112548
#        141042
#        162459
#        178773
#        202338
#        215611
#        232138
#        253756
#
# Disc length: 3608 seconds
#
# Revision: 0
# Processed by: cddbd v1.5.2PL0 Copyright (c) Steve Scherf et al.
# Submitted via: ExactAudioCopy v0.99pb5
#
DISCID=d60e160e
DTITLE=The Black Eyed Peas - Elephunk
DYEAR=2003
DGENRE=Hip-Hop
TTITLE0=Hands Up 
TTITLE1=Labour Day 
TTITLE2=Let's Get Retarded 
TTITLE3=Hey Mama 
TTITLE4=Shut Up 
TTITLE5=Smells Like Funk 
TTITLE6=Latin Girls 
TTITLE7=Sexy 
TTITLE8=Fly Away 
TTITLE9=The Boogie That Be
TTITLE10=The Apl Song 
TTITLE11=Anxiety 
TTITLE12=Where Is The Love 
TTITLE13=Third eye
EXTD=
EXTT0=
EXTT1=
EXTT2=
EXTT3=
EXTT4=
EXTT5=
EXTT6=
EXTT7=
EXTT8=
EXTT9=
EXTT10=
EXTT11=
EXTT12=
EXTT13=
PLAYORDER=
